#define font_width 256
#define font_height 32
static char font_bits[] = {
  0x00, 0x18, 0x66, 0x66, 0x18, 0x46, 0x3C, 0x60, 0x30, 0x0C, 0x00, 0x00, 
  0x00, 0x00, 0x00, 0x00, 0x3C, 0x18, 0x3C, 0x3C, 0x60, 0x7E, 0x3C, 0x7E, 
  0x3C, 0x3C, 0x00, 0x00, 0x70, 0x00, 0x0E, 0x3C, 0x00, 0x18, 0x66, 0x66, 
  0x7C, 0x66, 0x66, 0x30, 0x18, 0x18, 0x66, 0x18, 0x00, 0x00, 0x00, 0xC0, 
  0x66, 0x18, 0x66, 0x66, 0x70, 0x06, 0x66, 0x66, 0x66, 0x66, 0x00, 0x00, 
  0x18, 0x00, 0x18, 0x66, 0x00, 0x18, 0x66, 0xFF, 0x06, 0x30, 0x3C, 0x18, 
  0x0C, 0x30, 0x3C, 0x18, 0x00, 0x00, 0x00, 0x60, 0x76, 0x1C, 0x60, 0x60, 
  0x78, 0x3E, 0x06, 0x30, 0x66, 0x66, 0x18, 0x18, 0x0C, 0x7E, 0x30, 0x60, 
  0x00, 0x18, 0x00, 0x66, 0x3C, 0x18, 0x1C, 0x00, 0x0C, 0x30, 0xFF, 0x7E, 
  0x00, 0x7E, 0x00, 0x30, 0x6E, 0x18, 0x30, 0x38, 0x66, 0x60, 0x3E, 0x18, 
  0x3C, 0x7C, 0x00, 0x00, 0x06, 0x00, 0x60, 0x30, 0x00, 0x00, 0x00, 0xFF, 
  0x60, 0x0C, 0xE6, 0x00, 0x0C, 0x30, 0x3C, 0x18, 0x00, 0x00, 0x00, 0x18, 
  0x66, 0x18, 0x0C, 0x60, 0xFE, 0x60, 0x66, 0x18, 0x66, 0x60, 0x00, 0x00, 
  0x0C, 0x7E, 0x30, 0x18, 0x00, 0x00, 0x00, 0x66, 0x3E, 0x66, 0x66, 0x00, 
  0x18, 0x18, 0x66, 0x18, 0x18, 0x00, 0x18, 0x0C, 0x66, 0x18, 0x06, 0x66, 
  0x60, 0x66, 0x66, 0x18, 0x66, 0x66, 0x18, 0x18, 0x18, 0x00, 0x18, 0x00, 
  0x00, 0x18, 0x00, 0x66, 0x18, 0x62, 0xFC, 0x00, 0x30, 0x0C, 0x00, 0x00, 
  0x18, 0x00, 0x18, 0x06, 0x3C, 0x7E, 0x7E, 0x3C, 0x60, 0x3C, 0x3C, 0x18, 
  0x3C, 0x3C, 0x00, 0x18, 0x70, 0x00, 0x0E, 0x18, 0x00, 0x00, 0x00, 0x00, 
  0x00, 0x00, 0x00, 0x00, 0x00, 0x00, 0x00, 0x00, 0x0C, 0x00, 0x00, 0x00, 
  0x00, 0x00, 0x00, 0x00, 0x00, 0x00, 0x00, 0x00, 0x00, 0x00, 0x00, 0x0C, 
  0x00, 0x00, 0x00, 0x00, 0x3C, 0x18, 0x3E, 0x3C, 0x1E, 0x7E, 0x7E, 0x3C, 
  0x66, 0x3C, 0x78, 0x66, 0x06, 0xC6, 0x66, 0x3C, 0x3E, 0x3C, 0x3E, 0x3C, 
  0x7E, 0x66, 0x66, 0xC6, 0x66, 0x66, 0x7E, 0x3C, 0x30, 0x3C, 0x00, 0x00, 
  0x66, 0x3C, 0x66, 0x66, 0x36, 0x06, 0x06, 0x66, 0x66, 0x18, 0x30, 0x36, 
  0x06, 0xEE, 0x6E, 0x66, 0x66, 0x66, 0x66, 0x66, 0x18, 0x66, 0x66, 0xC6, 
  0x66, 0x66, 0x60, 0x0C, 0x48, 0x30, 0x18, 0x08, 0x76, 0x66, 0x66, 0x06, 
  0x66, 0x06, 0x06, 0x06, 0x66, 0x18, 0x30, 0x1E, 0x06, 0xFE, 0x7E, 0x66, 
  0x66, 0x66, 0x66, 0x06, 0x18, 0x66, 0x66, 0xC6, 0x3C, 0x66, 0x30, 0x0C, 
  0x0C, 0x30, 0x3C, 0x0C, 0x76, 0x7E, 0x3E, 0x06, 0x66, 0x1E, 0x1E, 0x76, 
  0x7E, 0x18, 0x30, 0x0E, 0x06, 0xD6, 0x7E, 0x66, 0x3E, 0x66, 0x3E, 0x3C, 
  0x18, 0x66, 0x66, 0xD6, 0x18, 0x3C, 0x18, 0x0C, 0x3E, 0x30, 0x7E, 0xFE, 
  0x06, 0x66, 0x66, 0x06, 0x66, 0x06, 0x06, 0x66, 0x66, 0x18, 0x30, 0x1E, 
  0x06, 0xC6, 0x76, 0x66, 0x06, 0x66, 0x1E, 0x60, 0x18, 0x66, 0x66, 0xFE, 
  0x3C, 0x18, 0x0C, 0x0C, 0x0C, 0x30, 0x18, 0xFE, 0x46, 0x66, 0x66, 0x66, 
  0x36, 0x06, 0x06, 0x66, 0x66, 0x18, 0x36, 0x36, 0x06, 0xC6, 0x66, 0x66, 
  0x06, 0x3C, 0x36, 0x66, 0x18, 0x66, 0x3C, 0xEE, 0x66, 0x18, 0x06, 0x0C, 
  0x46, 0x30, 0x18, 0x0C, 0x3C, 0x66, 0x3E, 0x3C, 0x1E, 0x7E, 0x06, 0x3C, 
  0x66, 0x3C, 0x1C, 0x66, 0x7E, 0xC6, 0x66, 0x3C, 0x06, 0x70, 0x66, 0x3C, 
  0x18, 0x3C, 0x18, 0xC6, 0x66, 0x18, 0x7E, 0x3C, 0x3F, 0x3C, 0x18, 0x08, 
  0x00, 0x00, 0x00, 0x00, 0x00, 0x00, 0x00, 0x00, 0x00, 0x00, 0x00, 0x00, 
  0x00, 0x00, 0x00, 0x00, 0x00, 0x00, 0x00, 0x00, 0x00, 0x00, 0x00, 0x00, 
  0x00, 0x00, 0x00, 0x00, 0x00, 0x00, 0x18, 0x00, 0x00, 0x00, 0x00, 0x00, 
  0x00, 0x00, 0x00, 0x00, 0x00, 0x00, 0x00, 0x00, 0x00, 0x00, 0x00, 0x00, 
  0x00, 0x00, 0x00, 0x00, 0x00, 0x00, 0x00, 0x00, 0x00, 0x00, 0x00, 0x18, 
  0x03, 0x18, 0xCC, 0xCC, 0x00, 0x00, 0x06, 0x00, 0x60, 0x00, 0x70, 0x00, 
  0x06, 0x18, 0x60, 0x06, 0x1C, 0x00, 0x00, 0x00, 0x00, 0x00, 0x00, 0x00, 
  0x18, 0x00, 0x00, 0x00, 0x00, 0x00, 0x00, 0x18, 0x03, 0x18, 0xCC, 0x99, 
  0x00, 0x3C, 0x06, 0x3C, 0x60, 0x3C, 0x18, 0x7C, 0x06, 0x00, 0x00, 0x06, 
  0x18, 0x66, 0x3E, 0x3C, 0x3E, 0x7C, 0x3E, 0x7C, 0x7E, 0x66, 0x66, 0xC6, 
  0x66, 0x66, 0x7E, 0x18, 0x0C, 0x18, 0x33, 0x33, 0xFF, 0x60, 0x3E, 0x06, 
  0x7C, 0x66, 0x7C, 0x66, 0x3E, 0x1C, 0x60, 0x36, 0x18, 0xFE, 0x66, 0x66, 
  0x66, 0x66, 0x66, 0x06, 0x18, 0x66, 0x66, 0xD6, 0x3C, 0x66, 0x30, 0xFF, 
  0x0C, 0x18, 0x33, 0x66, 0xFF, 0x7C, 0x66, 0x06, 0x66, 0x7E, 0x18, 0x66, 
  0x66, 0x18, 0x60, 0x1E, 0x18, 0xFE, 0x66, 0x66, 0x66, 0x66, 0x06, 0x3C, 
  0x18, 0x66, 0x66, 0xFE, 0x18, 0x66, 0x18, 0xFF, 0x03, 0x18, 0xCC, 0xCC, 
  0x00, 0x66, 0x66, 0x06, 0x66, 0x06, 0x18, 0x7C, 0x66, 0x18, 0x60, 0x36, 
  0x18, 0xD6, 0x66, 0x66, 0x3E, 0x7C, 0x06, 0x60, 0x18, 0x66, 0x3C, 0x7C, 
  0x3C, 0x7C, 0x0C, 0x18, 0x03, 0x18, 0xCC, 0x99, 0x00, 0x7C, 0x3E, 0x3C, 
  0x7C, 0x3C, 0x18, 0x60, 0x66, 0x3C, 0x60, 0x66, 0x3C, 0xC6, 0x66, 0x3C, 
  0x06, 0x60, 0x06, 0x3E, 0x70, 0x7C, 0x18, 0x6C, 0x66, 0x30, 0x7E, 0x18, 
  0x0C, 0x18, 0x33, 0x33, 0x00, 0x00, 0x00, 0x00, 0x00, 0x00, 0x00, 0x3E, 
  0x00, 0x00, 0x3C, 0x00, 0x00, 0x00, 0x00, 0x00, 0x06, 0x60, 0x00, 0x00, 
  0x00, 0x00, 0x00, 0x00, 0x00, 0x1E, 0x00, 0x18, 0x0C, 0x18, 0x33, 0x66, 
  0x00, 0x0F, 0x00, 0xFF, 0x00, 0x03, 0x33, 0xC0, 0x00, 0x33, 0xC0, 0x18, 
  0x00, 0x18, 0x00, 0x00, 0x00, 0x18, 0x00, 0x18, 0x03, 0x07, 0xE0, 0xFF, 
  0xFF, 0x00, 0x80, 0x00, 0xF0, 0x18, 0x0F, 0x0F, 0x00, 0x0F, 0x00, 0x00, 
  0x00, 0x03, 0x33, 0xC0, 0x00, 0x99, 0xC0, 0x18, 0x00, 0x18, 0x00, 0x00, 
  0x00, 0x18, 0x00, 0x18, 0x03, 0x07, 0xE0, 0xFF, 0xFF, 0x00, 0xC0, 0x00, 
  0xF0, 0x18, 0x0F, 0x0F, 0x00, 0x0F, 0x00, 0x00, 0x00, 0x03, 0xCC, 0xC0, 
  0x00, 0xCC, 0xC0, 0x18, 0x00, 0x18, 0x00, 0x00, 0x00, 0x18, 0x00, 0x18, 
  0x03, 0x07, 0xE0, 0x00, 0xFF, 0x00, 0x60, 0x00, 0xF0, 0x18, 0x0F, 0x0F, 
  0x00, 0x0F, 0x00, 0x00, 0x00, 0x03, 0xCC, 0xC0, 0x00, 0x66, 0xC0, 0xF8, 
  0x00, 0xF8, 0x1F, 0x00, 0xF8, 0xFF, 0xFF, 0x1F, 0x03, 0x07, 0xE0, 0x00, 
  0x00, 0x00, 0x36, 0x00, 0xF0, 0x1F, 0x0F, 0x0F, 0x00, 0x0F, 0xFF, 0x00, 
  0x00, 0x03, 0x33, 0xC0, 0x33, 0x33, 0xC0, 0xF8, 0xF0, 0xF8, 0x1F, 0x00, 
  0xF8, 0xFF, 0xFF, 0x1F, 0x03, 0x07, 0xE0, 0x00, 0x00, 0x00, 0x1E, 0x0F, 
  0x00, 0x1F, 0x00, 0xF0, 0x00, 0x0F, 0xFF, 0x00, 0x00, 0x03, 0x33, 0xC0, 
  0x33, 0x99, 0xC0, 0x18, 0xF0, 0x00, 0x18, 0x00, 0x18, 0x00, 0x18, 0x18, 
  0x03, 0x07, 0xE0, 0x00, 0x00, 0xFF, 0x0E, 0x0F, 0x00, 0x00, 0x00, 0xF0, 
  0x00, 0x0F, 0xFF, 0x00, 0x00, 0x03, 0xCC, 0xC0, 0xCC, 0xCC, 0xC0, 0x18, 
  0xF0, 0x00, 0x18, 0xFF, 0x18, 0x00, 0x18, 0x18, 0x03, 0x07, 0xE0, 0x00, 
  0x00, 0xFF, 0x06, 0x0F, 0x00, 0x00, 0x00, 0xF0, 0x00, 0x0F, 0xFF, 0x00, 
  0xFF, 0x03, 0xCC, 0xC0, 0xCC, 0x66, 0xC0, 0x18, 0xF0, 0x00, 0x18, 0xFF, 
  0x18, 0x00, 0x18, 0x18, 0x03, 0x07, 0xE0, 0x00, 0x00, 0xFF, 0x00, 0x0F, 
  0x00, 0x00, 0x00, 0xF0, };
